<!DOCTYPE svg PUBLIC "-//W3C//DTD SVG 1.1//EN" "http://www.w3.org/Graphics/SVG/1.1/DTD/svg11.dtd">
<svg xmlns="http://www.w3.org/2000/svg" xmlns:xlink="http://www.w3.org/1999/xlink" xmlns:jfreesvg="http://www.jfree.org/jfreesvg/svg" width="1280" height="680" text-rendering="auto" shape-rendering="auto">
<defs></defs>
<ellipse cx="529" cy="46" rx="5" ry="5" style="fill: rgb(255,0,0); fill-opacity: 1.0" transform="matrix(1,0,0,1,0,0)" /><g transform="matrix(1,0,0,1,0,0)"><text x="534" y="46" style="fill: rgb(255,0,0); fill-opacity: 1.0; font-family: sans-serif; font-size: 12px;" >(0)</text></g><ellipse cx="539" cy="183" rx="5" ry="5" style="fill: rgb(255,0,0); fill-opacity: 1.0" transform="matrix(1,0,0,1,0,0)" /><g transform="matrix(1,0,0,1,0,0)"><text x="544" y="183" style="fill: rgb(255,0,0); fill-opacity: 1.0; font-family: sans-serif; font-size: 12px;" >(1)</text></g><ellipse cx="587" cy="111" rx="5" ry="5" style="fill: rgb(255,0,0); fill-opacity: 1.0" transform="matrix(1,0,0,1,0,0)" /><g transform="matrix(1,0,0,1,0,0)"><text x="592" y="111" style="fill: rgb(255,0,0); fill-opacity: 1.0; font-family: sans-serif; font-size: 12px;" >(2)</text></g><ellipse cx="570" cy="278" rx="5" ry="5" style="fill: rgb(255,0,0); fill-opacity: 1.0" transform="matrix(1,0,0,1,0,0)" /><g transform="matrix(1,0,0,1,0,0)"><text x="575" y="278" style="fill: rgb(255,0,0); fill-opacity: 1.0; font-family: sans-serif; font-size: 12px;" >(3)</text></g><ellipse cx="488" cy="131" rx="5" ry="5" style="fill: rgb(255,0,0); fill-opacity: 1.0" transform="matrix(1,0,0,1,0,0)" /><g transform="matrix(1,0,0,1,0,0)"><text x="493" y="131" style="fill: rgb(255,0,0); fill-opacity: 1.0; font-family: sans-serif; font-size: 12px;" >(4)</text></g><ellipse cx="611" cy="238" rx="5" ry="5" style="fill: rgb(255,0,0); fill-opacity: 1.0" transform="matrix(1,0,0,1,0,0)" /><g transform="matrix(1,0,0,1,0,0)"><text x="616" y="238" style="fill: rgb(255,0,0); fill-opacity: 1.0; font-family: sans-serif; font-size: 12px;" >(5)</text></g><ellipse cx="595" cy="411" rx="5" ry="5" style="fill: rgb(255,0,0); fill-opacity: 1.0" transform="matrix(1,0,0,1,0,0)" /><g transform="matrix(1,0,0,1,0,0)"><text x="600" y="411" style="fill: rgb(255,0,0); fill-opacity: 1.0; font-family: sans-serif; font-size: 12px;" >(6)</text></g><ellipse cx="494" cy="432" rx="5" ry="5" style="fill: rgb(255,0,0); fill-opacity: 1.0" transform="matrix(1,0,0,1,0,0)" /><g transform="matrix(1,0,0,1,0,0)"><text x="499" y="432" style="fill: rgb(255,0,0); fill-opacity: 1.0; font-family: sans-serif; font-size: 12px;" >(7)</text></g><ellipse cx="771" cy="213" rx="5" ry="5" style="fill: rgb(255,0,0); fill-opacity: 1.0" transform="matrix(1,0,0,1,0,0)" /><g transform="matrix(1,0,0,1,0,0)"><text x="776" y="213" style="fill: rgb(255,0,0); fill-opacity: 1.0; font-family: sans-serif; font-size: 12px;" >(8)</text></g><ellipse cx="506" cy="100" rx="5" ry="5" style="fill: rgb(255,0,0); fill-opacity: 1.0" transform="matrix(1,0,0,1,0,0)" /><g transform="matrix(1,0,0,1,0,0)"><text x="511" y="100" style="fill: rgb(255,0,0); fill-opacity: 1.0; font-family: sans-serif; font-size: 12px;" >(9)</text></g><line x1="539" y1="183" x2="529" y2="46" style="stroke-width: 1.0;stroke: rgb(0,0,0);stroke-opacity: 1.0;stroke-linecap: square;" transform="matrix(1,0,0,1,0,0)" /><line x1="587" y1="111" x2="529" y2="46" style="stroke-width: 1.0;stroke: rgb(0,0,0);stroke-opacity: 1.0;stroke-linecap: square;" transform="matrix(1,0,0,1,0,0)" /><line x1="529" y1="46" x2="570" y2="278" style="stroke-width: 1.0;stroke: rgb(0,0,0);stroke-opacity: 1.0;stroke-linecap: square;" transform="matrix(1,0,0,1,0,0)" /><line x1="570" y1="278" x2="539" y2="183" style="stroke-width: 1.0;stroke: rgb(0,0,0);stroke-opacity: 1.0;stroke-linecap: square;" transform="matrix(1,0,0,1,0,0)" /><line x1="570" y1="278" x2="587" y2="111" style="stroke-width: 1.0;stroke: rgb(0,0,0);stroke-opacity: 1.0;stroke-linecap: square;" transform="matrix(1,0,0,1,0,0)" /><line x1="488" y1="131" x2="529" y2="46" style="stroke-width: 1.0;stroke: rgb(0,0,0);stroke-opacity: 1.0;stroke-linecap: square;" transform="matrix(1,0,0,1,0,0)" /><line x1="611" y1="238" x2="587" y2="111" style="stroke-width: 1.0;stroke: rgb(0,0,0);stroke-opacity: 1.0;stroke-linecap: square;" transform="matrix(1,0,0,1,0,0)" /><line x1="488" y1="131" x2="494" y2="432" style="stroke-width: 1.0;stroke: rgb(0,0,0);stroke-opacity: 1.0;stroke-linecap: square;" transform="matrix(1,0,0,1,0,0)" /><line x1="587" y1="111" x2="595" y2="411" style="stroke-width: 1.0;stroke: rgb(0,0,0);stroke-opacity: 1.0;stroke-linecap: square;" transform="matrix(1,0,0,1,0,0)" /><line x1="595" y1="411" x2="570" y2="278" style="stroke-width: 1.0;stroke: rgb(0,0,0);stroke-opacity: 1.0;stroke-linecap: square;" transform="matrix(1,0,0,1,0,0)" /><line x1="494" y1="432" x2="595" y2="411" style="stroke-width: 1.0;stroke: rgb(0,0,0);stroke-opacity: 1.0;stroke-linecap: square;" transform="matrix(1,0,0,1,0,0)" /><line x1="529" y1="46" x2="494" y2="432" style="stroke-width: 1.0;stroke: rgb(0,0,0);stroke-opacity: 1.0;stroke-linecap: square;" transform="matrix(1,0,0,1,0,0)" /><line x1="494" y1="432" x2="539" y2="183" style="stroke-width: 1.0;stroke: rgb(0,0,0);stroke-opacity: 1.0;stroke-linecap: square;" transform="matrix(1,0,0,1,0,0)" /><line x1="570" y1="278" x2="494" y2="432" style="stroke-width: 1.0;stroke: rgb(0,0,0);stroke-opacity: 1.0;stroke-linecap: square;" transform="matrix(1,0,0,1,0,0)" /><line x1="595" y1="411" x2="611" y2="238" style="stroke-width: 1.0;stroke: rgb(0,0,0);stroke-opacity: 1.0;stroke-linecap: square;" transform="matrix(1,0,0,1,0,0)" /><line x1="506" y1="100" x2="488" y2="131" style="stroke-width: 1.0;stroke: rgb(0,0,0);stroke-opacity: 1.0;stroke-linecap: square;" transform="matrix(1,0,0,1,0,0)" /><line x1="529" y1="46" x2="771" y2="213" style="stroke-width: 1.0;stroke: rgb(0,0,0);stroke-opacity: 1.0;stroke-linecap: square;" transform="matrix(1,0,0,1,0,0)" /><line x1="771" y1="213" x2="587" y2="111" style="stroke-width: 1.0;stroke: rgb(0,0,0);stroke-opacity: 1.0;stroke-linecap: square;" transform="matrix(1,0,0,1,0,0)" /><line x1="529" y1="46" x2="506" y2="100" style="stroke-width: 1.0;stroke: rgb(0,0,0);stroke-opacity: 1.0;stroke-linecap: square;" transform="matrix(1,0,0,1,0,0)" /><line x1="771" y1="213" x2="611" y2="238" style="stroke-width: 1.0;stroke: rgb(0,0,0);stroke-opacity: 1.0;stroke-linecap: square;" transform="matrix(1,0,0,1,0,0)" /><line x1="771" y1="213" x2="595" y2="411" style="stroke-width: 1.0;stroke: rgb(0,0,0);stroke-opacity: 1.0;stroke-linecap: square;" transform="matrix(1,0,0,1,0,0)" /><line x1="494" y1="432" x2="506" y2="100" style="stroke-width: 1.0;stroke: rgb(0,0,0);stroke-opacity: 1.0;stroke-linecap: square;" transform="matrix(1,0,0,1,0,0)" /></svg>
