<!DOCTYPE svg PUBLIC "-//W3C//DTD SVG 1.1//EN" "http://www.w3.org/Graphics/SVG/1.1/DTD/svg11.dtd">
<svg xmlns="http://www.w3.org/2000/svg" xmlns:xlink="http://www.w3.org/1999/xlink" xmlns:jfreesvg="http://www.jfree.org/jfreesvg/svg" width="1280" height="680" text-rendering="auto" shape-rendering="auto">
<defs></defs>
<ellipse cx="839" cy="215" rx="5" ry="5" style="fill: rgb(255,0,0); fill-opacity: 1.0" transform="matrix(1,0,0,1,0,0)" /><g transform="matrix(1,0,0,1,0,0)"><text x="844" y="215" style="fill: rgb(255,0,0); fill-opacity: 1.0; font-family: sans-serif; font-size: 12px;" >(0)</text></g><ellipse cx="653" cy="219" rx="5" ry="5" style="fill: rgb(255,0,0); fill-opacity: 1.0" transform="matrix(1,0,0,1,0,0)" /><g transform="matrix(1,0,0,1,0,0)"><text x="658" y="219" style="fill: rgb(255,0,0); fill-opacity: 1.0; font-family: sans-serif; font-size: 12px;" >(1)</text></g><ellipse cx="797" cy="191" rx="5" ry="5" style="fill: rgb(255,0,0); fill-opacity: 1.0" transform="matrix(1,0,0,1,0,0)" /><g transform="matrix(1,0,0,1,0,0)"><text x="802" y="191" style="fill: rgb(255,0,0); fill-opacity: 1.0; font-family: sans-serif; font-size: 12px;" >(2)</text></g><ellipse cx="768" cy="240" rx="5" ry="5" style="fill: rgb(255,0,0); fill-opacity: 1.0" transform="matrix(1,0,0,1,0,0)" /><g transform="matrix(1,0,0,1,0,0)"><text x="773" y="240" style="fill: rgb(255,0,0); fill-opacity: 1.0; font-family: sans-serif; font-size: 12px;" >(3)</text></g><ellipse cx="619" cy="181" rx="5" ry="5" style="fill: rgb(255,0,0); fill-opacity: 1.0" transform="matrix(1,0,0,1,0,0)" /><g transform="matrix(1,0,0,1,0,0)"><text x="624" y="181" style="fill: rgb(255,0,0); fill-opacity: 1.0; font-family: sans-serif; font-size: 12px;" >(4)</text></g><ellipse cx="458" cy="405" rx="5" ry="5" style="fill: rgb(255,0,0); fill-opacity: 1.0" transform="matrix(1,0,0,1,0,0)" /><g transform="matrix(1,0,0,1,0,0)"><text x="463" y="405" style="fill: rgb(255,0,0); fill-opacity: 1.0; font-family: sans-serif; font-size: 12px;" >(5)</text></g><ellipse cx="476" cy="185" rx="5" ry="5" style="fill: rgb(255,0,0); fill-opacity: 1.0" transform="matrix(1,0,0,1,0,0)" /><g transform="matrix(1,0,0,1,0,0)"><text x="481" y="185" style="fill: rgb(255,0,0); fill-opacity: 1.0; font-family: sans-serif; font-size: 12px;" >(6)</text></g><ellipse cx="442" cy="356" rx="5" ry="5" style="fill: rgb(255,0,0); fill-opacity: 1.0" transform="matrix(1,0,0,1,0,0)" /><g transform="matrix(1,0,0,1,0,0)"><text x="447" y="356" style="fill: rgb(255,0,0); fill-opacity: 1.0; font-family: sans-serif; font-size: 12px;" >(7)</text></g><ellipse cx="824" cy="141" rx="5" ry="5" style="fill: rgb(255,0,0); fill-opacity: 1.0" transform="matrix(1,0,0,1,0,0)" /><g transform="matrix(1,0,0,1,0,0)"><text x="829" y="141" style="fill: rgb(255,0,0); fill-opacity: 1.0; font-family: sans-serif; font-size: 12px;" >(8)</text></g><ellipse cx="794" cy="293" rx="5" ry="5" style="fill: rgb(255,0,0); fill-opacity: 1.0" transform="matrix(1,0,0,1,0,0)" /><g transform="matrix(1,0,0,1,0,0)"><text x="799" y="293" style="fill: rgb(255,0,0); fill-opacity: 1.0; font-family: sans-serif; font-size: 12px;" >(9)</text></g><line x1="797" y1="191" x2="653" y2="219" style="stroke-width: 1.0;stroke: rgb(0,0,0);stroke-opacity: 1.0;stroke-linecap: square;" transform="matrix(1,0,0,1,0,0)" /><line x1="839" y1="215" x2="797" y2="191" style="stroke-width: 1.0;stroke: rgb(0,0,0);stroke-opacity: 1.0;stroke-linecap: square;" transform="matrix(1,0,0,1,0,0)" /><line x1="768" y1="240" x2="653" y2="219" style="stroke-width: 1.0;stroke: rgb(0,0,0);stroke-opacity: 1.0;stroke-linecap: square;" transform="matrix(1,0,0,1,0,0)" /><line x1="768" y1="240" x2="797" y2="191" style="stroke-width: 1.0;stroke: rgb(0,0,0);stroke-opacity: 1.0;stroke-linecap: square;" transform="matrix(1,0,0,1,0,0)" /><line x1="839" y1="215" x2="768" y2="240" style="stroke-width: 1.0;stroke: rgb(0,0,0);stroke-opacity: 1.0;stroke-linecap: square;" transform="matrix(1,0,0,1,0,0)" /><line x1="653" y1="219" x2="619" y2="181" style="stroke-width: 1.0;stroke: rgb(0,0,0);stroke-opacity: 1.0;stroke-linecap: square;" transform="matrix(1,0,0,1,0,0)" /><line x1="797" y1="191" x2="619" y2="181" style="stroke-width: 1.0;stroke: rgb(0,0,0);stroke-opacity: 1.0;stroke-linecap: square;" transform="matrix(1,0,0,1,0,0)" /><line x1="458" y1="405" x2="653" y2="219" style="stroke-width: 1.0;stroke: rgb(0,0,0);stroke-opacity: 1.0;stroke-linecap: square;" transform="matrix(1,0,0,1,0,0)" /><line x1="653" y1="219" x2="476" y2="185" style="stroke-width: 1.0;stroke: rgb(0,0,0);stroke-opacity: 1.0;stroke-linecap: square;" transform="matrix(1,0,0,1,0,0)" /><line x1="442" y1="356" x2="458" y2="405" style="stroke-width: 1.0;stroke: rgb(0,0,0);stroke-opacity: 1.0;stroke-linecap: square;" transform="matrix(1,0,0,1,0,0)" /><line x1="442" y1="356" x2="476" y2="185" style="stroke-width: 1.0;stroke: rgb(0,0,0);stroke-opacity: 1.0;stroke-linecap: square;" transform="matrix(1,0,0,1,0,0)" /><line x1="476" y1="185" x2="619" y2="181" style="stroke-width: 1.0;stroke: rgb(0,0,0);stroke-opacity: 1.0;stroke-linecap: square;" transform="matrix(1,0,0,1,0,0)" /><line x1="653" y1="219" x2="442" y2="356" style="stroke-width: 1.0;stroke: rgb(0,0,0);stroke-opacity: 1.0;stroke-linecap: square;" transform="matrix(1,0,0,1,0,0)" /><line x1="824" y1="141" x2="797" y2="191" style="stroke-width: 1.0;stroke: rgb(0,0,0);stroke-opacity: 1.0;stroke-linecap: square;" transform="matrix(1,0,0,1,0,0)" /><line x1="458" y1="405" x2="794" y2="293" style="stroke-width: 1.0;stroke: rgb(0,0,0);stroke-opacity: 1.0;stroke-linecap: square;" transform="matrix(1,0,0,1,0,0)" /><line x1="824" y1="141" x2="839" y2="215" style="stroke-width: 1.0;stroke: rgb(0,0,0);stroke-opacity: 1.0;stroke-linecap: square;" transform="matrix(1,0,0,1,0,0)" /><line x1="794" y1="293" x2="768" y2="240" style="stroke-width: 1.0;stroke: rgb(0,0,0);stroke-opacity: 1.0;stroke-linecap: square;" transform="matrix(1,0,0,1,0,0)" /><line x1="619" y1="181" x2="824" y2="141" style="stroke-width: 1.0;stroke: rgb(0,0,0);stroke-opacity: 1.0;stroke-linecap: square;" transform="matrix(1,0,0,1,0,0)" /><line x1="824" y1="141" x2="476" y2="185" style="stroke-width: 1.0;stroke: rgb(0,0,0);stroke-opacity: 1.0;stroke-linecap: square;" transform="matrix(1,0,0,1,0,0)" /><line x1="794" y1="293" x2="653" y2="219" style="stroke-width: 1.0;stroke: rgb(0,0,0);stroke-opacity: 1.0;stroke-linecap: square;" transform="matrix(1,0,0,1,0,0)" /><line x1="794" y1="293" x2="839" y2="215" style="stroke-width: 1.0;stroke: rgb(0,0,0);stroke-opacity: 1.0;stroke-linecap: square;" transform="matrix(1,0,0,1,0,0)" /></svg>
