<!DOCTYPE svg PUBLIC "-//W3C//DTD SVG 1.1//EN" "http://www.w3.org/Graphics/SVG/1.1/DTD/svg11.dtd">
<svg xmlns="http://www.w3.org/2000/svg" xmlns:xlink="http://www.w3.org/1999/xlink" xmlns:jfreesvg="http://www.jfree.org/jfreesvg/svg" width="1280" height="680" text-rendering="auto" shape-rendering="auto">
<defs></defs>
<ellipse cx="637" cy="181" rx="5" ry="5" style="fill: rgb(255,0,0); fill-opacity: 1.0" transform="matrix(1,0,0,1,0,0)" /><g transform="matrix(1,0,0,1,0,0)"><text x="642" y="181" style="fill: rgb(255,0,0); fill-opacity: 1.0; font-family: sans-serif; font-size: 12px;" >(0)</text></g><ellipse cx="549" cy="64" rx="5" ry="5" style="fill: rgb(255,0,0); fill-opacity: 1.0" transform="matrix(1,0,0,1,0,0)" /><g transform="matrix(1,0,0,1,0,0)"><text x="554" y="64" style="fill: rgb(255,0,0); fill-opacity: 1.0; font-family: sans-serif; font-size: 12px;" >(1)</text></g><ellipse cx="768" cy="341" rx="5" ry="5" style="fill: rgb(255,0,0); fill-opacity: 1.0" transform="matrix(1,0,0,1,0,0)" /><g transform="matrix(1,0,0,1,0,0)"><text x="773" y="341" style="fill: rgb(255,0,0); fill-opacity: 1.0; font-family: sans-serif; font-size: 12px;" >(2)</text></g><ellipse cx="723" cy="80" rx="5" ry="5" style="fill: rgb(255,0,0); fill-opacity: 1.0" transform="matrix(1,0,0,1,0,0)" /><g transform="matrix(1,0,0,1,0,0)"><text x="728" y="80" style="fill: rgb(255,0,0); fill-opacity: 1.0; font-family: sans-serif; font-size: 12px;" >(3)</text></g><ellipse cx="817" cy="214" rx="5" ry="5" style="fill: rgb(255,0,0); fill-opacity: 1.0" transform="matrix(1,0,0,1,0,0)" /><g transform="matrix(1,0,0,1,0,0)"><text x="822" y="214" style="fill: rgb(255,0,0); fill-opacity: 1.0; font-family: sans-serif; font-size: 12px;" >(4)</text></g><ellipse cx="454" cy="363" rx="5" ry="5" style="fill: rgb(255,0,0); fill-opacity: 1.0" transform="matrix(1,0,0,1,0,0)" /><g transform="matrix(1,0,0,1,0,0)"><text x="459" y="363" style="fill: rgb(255,0,0); fill-opacity: 1.0; font-family: sans-serif; font-size: 12px;" >(5)</text></g><ellipse cx="491" cy="332" rx="5" ry="5" style="fill: rgb(255,0,0); fill-opacity: 1.0" transform="matrix(1,0,0,1,0,0)" /><g transform="matrix(1,0,0,1,0,0)"><text x="496" y="332" style="fill: rgb(255,0,0); fill-opacity: 1.0; font-family: sans-serif; font-size: 12px;" >(6)</text></g><ellipse cx="682" cy="179" rx="5" ry="5" style="fill: rgb(255,0,0); fill-opacity: 1.0" transform="matrix(1,0,0,1,0,0)" /><g transform="matrix(1,0,0,1,0,0)"><text x="687" y="179" style="fill: rgb(255,0,0); fill-opacity: 1.0; font-family: sans-serif; font-size: 12px;" >(7)</text></g><ellipse cx="624" cy="434" rx="5" ry="5" style="fill: rgb(255,0,0); fill-opacity: 1.0" transform="matrix(1,0,0,1,0,0)" /><g transform="matrix(1,0,0,1,0,0)"><text x="629" y="434" style="fill: rgb(255,0,0); fill-opacity: 1.0; font-family: sans-serif; font-size: 12px;" >(8)</text></g><ellipse cx="732" cy="112" rx="5" ry="5" style="fill: rgb(255,0,0); fill-opacity: 1.0" transform="matrix(1,0,0,1,0,0)" /><g transform="matrix(1,0,0,1,0,0)"><text x="737" y="112" style="fill: rgb(255,0,0); fill-opacity: 1.0; font-family: sans-serif; font-size: 12px;" >(9)</text></g><ellipse cx="40" cy="40" rx="5" ry="5" style="fill: rgb(255,0,0); fill-opacity: 1.0" transform="matrix(1,0,0,1,0,0)" /><g transform="matrix(1,0,0,1,0,0)"><text x="45" y="40" style="fill: rgb(255,0,0); fill-opacity: 1.0; font-family: sans-serif; font-size: 12px;" >(10)</text></g><ellipse cx="1240" cy="40" rx="5" ry="5" style="fill: rgb(255,0,0); fill-opacity: 1.0" transform="matrix(1,0,0,1,0,0)" /><g transform="matrix(1,0,0,1,0,0)"><text x="1245" y="40" style="fill: rgb(255,0,0); fill-opacity: 1.0; font-family: sans-serif; font-size: 12px;" >(11)</text></g><ellipse cx="640" cy="640" rx="5" ry="5" style="fill: rgb(255,0,0); fill-opacity: 1.0" transform="matrix(1,0,0,1,0,0)" /><g transform="matrix(1,0,0,1,0,0)"><text x="645" y="640" style="fill: rgb(255,0,0); fill-opacity: 1.0; font-family: sans-serif; font-size: 12px;" >(12)</text></g><line x1="637" y1="181" x2="549" y2="64" style="stroke-width: 1.0;stroke: rgb(0,0,0);stroke-opacity: 1.0;stroke-linecap: square;" transform="matrix(1,0,0,1,0,0)" /><line x1="768" y1="341" x2="637" y2="181" style="stroke-width: 1.0;stroke: rgb(0,0,0);stroke-opacity: 1.0;stroke-linecap: square;" transform="matrix(1,0,0,1,0,0)" /><line x1="637" y1="181" x2="723" y2="80" style="stroke-width: 1.0;stroke: rgb(0,0,0);stroke-opacity: 1.0;stroke-linecap: square;" transform="matrix(1,0,0,1,0,0)" /><line x1="817" y1="214" x2="768" y2="341" style="stroke-width: 1.0;stroke: rgb(0,0,0);stroke-opacity: 1.0;stroke-linecap: square;" transform="matrix(1,0,0,1,0,0)" /><line x1="817" y1="214" x2="682" y2="179" style="stroke-width: 1.0;stroke: rgb(0,0,0);stroke-opacity: 1.0;stroke-linecap: square;" transform="matrix(1,0,0,1,0,0)" /><line x1="491" y1="332" x2="637" y2="181" style="stroke-width: 1.0;stroke: rgb(0,0,0);stroke-opacity: 1.0;stroke-linecap: square;" transform="matrix(1,0,0,1,0,0)" /><line x1="637" y1="181" x2="682" y2="179" style="stroke-width: 1.0;stroke: rgb(0,0,0);stroke-opacity: 1.0;stroke-linecap: square;" transform="matrix(1,0,0,1,0,0)" /><line x1="768" y1="341" x2="682" y2="179" style="stroke-width: 1.0;stroke: rgb(0,0,0);stroke-opacity: 1.0;stroke-linecap: square;" transform="matrix(1,0,0,1,0,0)" /><line x1="40" y1="40" x2="1240" y2="40" style="stroke-width: 1.0;stroke: rgb(0,0,0);stroke-opacity: 1.0;stroke-linecap: square;" transform="matrix(1,0,0,1,0,0)" /><line x1="624" y1="434" x2="637" y2="181" style="stroke-width: 1.0;stroke: rgb(0,0,0);stroke-opacity: 1.0;stroke-linecap: square;" transform="matrix(1,0,0,1,0,0)" /><line x1="732" y1="112" x2="817" y2="214" style="stroke-width: 1.0;stroke: rgb(0,0,0);stroke-opacity: 1.0;stroke-linecap: square;" transform="matrix(1,0,0,1,0,0)" /><line x1="624" y1="434" x2="768" y2="341" style="stroke-width: 1.0;stroke: rgb(0,0,0);stroke-opacity: 1.0;stroke-linecap: square;" transform="matrix(1,0,0,1,0,0)" /><line x1="491" y1="332" x2="624" y2="434" style="stroke-width: 1.0;stroke: rgb(0,0,0);stroke-opacity: 1.0;stroke-linecap: square;" transform="matrix(1,0,0,1,0,0)" /><line x1="1240" y1="40" x2="817" y2="214" style="stroke-width: 1.0;stroke: rgb(0,0,0);stroke-opacity: 1.0;stroke-linecap: square;" transform="matrix(1,0,0,1,0,0)" /><line x1="768" y1="341" x2="1240" y2="40" style="stroke-width: 1.0;stroke: rgb(0,0,0);stroke-opacity: 1.0;stroke-linecap: square;" transform="matrix(1,0,0,1,0,0)" /><line x1="640" y1="640" x2="768" y2="341" style="stroke-width: 1.0;stroke: rgb(0,0,0);stroke-opacity: 1.0;stroke-linecap: square;" transform="matrix(1,0,0,1,0,0)" /><line x1="640" y1="640" x2="624" y2="434" style="stroke-width: 1.0;stroke: rgb(0,0,0);stroke-opacity: 1.0;stroke-linecap: square;" transform="matrix(1,0,0,1,0,0)" /><line x1="640" y1="640" x2="40" y2="40" style="stroke-width: 1.0;stroke: rgb(0,0,0);stroke-opacity: 1.0;stroke-linecap: square;" transform="matrix(1,0,0,1,0,0)" /><line x1="723" y1="80" x2="549" y2="64" style="stroke-width: 1.0;stroke: rgb(0,0,0);stroke-opacity: 1.0;stroke-linecap: square;" transform="matrix(1,0,0,1,0,0)" /><line x1="817" y1="214" x2="723" y2="80" style="stroke-width: 1.0;stroke: rgb(0,0,0);stroke-opacity: 1.0;stroke-linecap: square;" transform="matrix(1,0,0,1,0,0)" /><line x1="549" y1="64" x2="454" y2="363" style="stroke-width: 1.0;stroke: rgb(0,0,0);stroke-opacity: 1.0;stroke-linecap: square;" transform="matrix(1,0,0,1,0,0)" /><line x1="549" y1="64" x2="491" y2="332" style="stroke-width: 1.0;stroke: rgb(0,0,0);stroke-opacity: 1.0;stroke-linecap: square;" transform="matrix(1,0,0,1,0,0)" /><line x1="454" y1="363" x2="491" y2="332" style="stroke-width: 1.0;stroke: rgb(0,0,0);stroke-opacity: 1.0;stroke-linecap: square;" transform="matrix(1,0,0,1,0,0)" /><line x1="723" y1="80" x2="682" y2="179" style="stroke-width: 1.0;stroke: rgb(0,0,0);stroke-opacity: 1.0;stroke-linecap: square;" transform="matrix(1,0,0,1,0,0)" /><line x1="454" y1="363" x2="624" y2="434" style="stroke-width: 1.0;stroke: rgb(0,0,0);stroke-opacity: 1.0;stroke-linecap: square;" transform="matrix(1,0,0,1,0,0)" /><line x1="732" y1="112" x2="723" y2="80" style="stroke-width: 1.0;stroke: rgb(0,0,0);stroke-opacity: 1.0;stroke-linecap: square;" transform="matrix(1,0,0,1,0,0)" /><line x1="549" y1="64" x2="40" y2="40" style="stroke-width: 1.0;stroke: rgb(0,0,0);stroke-opacity: 1.0;stroke-linecap: square;" transform="matrix(1,0,0,1,0,0)" /><line x1="40" y1="40" x2="454" y2="363" style="stroke-width: 1.0;stroke: rgb(0,0,0);stroke-opacity: 1.0;stroke-linecap: square;" transform="matrix(1,0,0,1,0,0)" /><line x1="1240" y1="40" x2="549" y2="64" style="stroke-width: 1.0;stroke: rgb(0,0,0);stroke-opacity: 1.0;stroke-linecap: square;" transform="matrix(1,0,0,1,0,0)" /><line x1="682" y1="179" x2="732" y2="112" style="stroke-width: 1.0;stroke: rgb(0,0,0);stroke-opacity: 1.0;stroke-linecap: square;" transform="matrix(1,0,0,1,0,0)" /><line x1="1240" y1="40" x2="723" y2="80" style="stroke-width: 1.0;stroke: rgb(0,0,0);stroke-opacity: 1.0;stroke-linecap: square;" transform="matrix(1,0,0,1,0,0)" /><line x1="454" y1="363" x2="640" y2="640" style="stroke-width: 1.0;stroke: rgb(0,0,0);stroke-opacity: 1.0;stroke-linecap: square;" transform="matrix(1,0,0,1,0,0)" /><line x1="1240" y1="40" x2="640" y2="640" style="stroke-width: 1.0;stroke: rgb(0,0,0);stroke-opacity: 1.0;stroke-linecap: square;" transform="matrix(1,0,0,1,0,0)" /></svg>
